<svg width="108" height="27" viewBox="0 0 108 27" fill="none" xmlns="http://www.w3.org/2000/svg">
<path d="M1.43402 11.8217C6.79553 7.46414 12.3718 3.90815 18.5579 0.704229C19.9148 -0.0029829 21.5954 1.78035 20.3673 2.96849C18.4667 4.85233 16.523 6.57586 14.3761 8.18203C46.0974 0.885076 80.5708 6.42436 107.651 24.7693C108.304 25.2816 107.76 26.4583 106.947 25.9888C77.5365 7.92469 42.668 2.83489 9.65582 12.3677C12.3182 12.6853 14.8632 13.2061 17.5256 13.5236C19.5037 13.8527 18.545 16.6868 16.7271 16.3148C11.8833 15.5509 7.03949 14.787 2.03538 14.066C1.03057 14.1634 0.558068 12.4 1.43402 11.8217Z" fill="#FCD53E"/>
</svg>
