<svg width="32" height="132" viewBox="0 0 32 132" fill="none" xmlns="http://www.w3.org/2000/svg">
<path d="M18.0424 130.887C23.3888 124.309 27.7518 117.467 31.6828 109.877C32.5505 108.212 30.3625 106.15 28.9047 107.657C26.5934 109.989 24.4787 112.374 22.508 115.008C31.4609 76.0879 24.6646 33.7912 2.15654 0.5656C1.5279 -0.235279 0.0842501 0.431951 0.660196 1.42952C22.8238 37.5142 29.0686 80.2956 17.3724 120.799C16.9828 117.533 16.3438 114.41 15.9542 111.144C15.5505 108.717 12.0732 109.893 12.5296 112.123C13.4669 118.066 14.4042 124.009 15.2888 130.149C15.1692 131.382 17.3328 131.962 18.0424 130.887Z" fill="#FCD53E"/>
</svg>
