<svg width="113" height="165" viewBox="0 0 113 165" fill="none" xmlns="http://www.w3.org/2000/svg">
<path d="M60.5621 84.4313C25.6651 70.8192 -5.90847 41.0199 0.923225 0.367736C1.10786 -0.36805 2.40035 -0.000156594 2.21571 0.919576C-1.84638 31.0868 16.0638 57.5751 41.5441 72.4748C61.67 84.2473 87.335 86.8226 102.291 106.505C108.015 114.047 112.077 123.428 112.815 132.993C113.739 142.374 109.492 147.893 101.922 152.859C84.9347 163.896 62.5932 163.712 45.2369 153.595C47.4526 156.722 49.853 159.665 52.8072 162.425C54.2843 163.896 52.0686 166.104 50.4069 164.816C46.1601 160.953 42.8366 156.722 40.067 151.756C39.5131 150.836 40.067 149.732 40.9902 149.364C46.7141 147.525 52.6226 145.502 58.3464 143.662C60.3775 142.926 61.116 146.053 59.2696 146.789C55.3922 148.077 51.884 149.732 48.3758 151.94C58.5311 157.458 69.9788 159.481 81.6111 157.642C95.4592 154.883 111.892 146.973 109.307 130.602C105.06 104.114 83.0883 93.2607 60.5621 84.4313Z" fill="#FCD53E"/>
</svg>
