<svg width="108" height="27" viewBox="0 0 108 27" fill="none" xmlns="http://www.w3.org/2000/svg">
<path d="M106.678 11.8217C101.317 7.46414 95.7402 3.90815 89.5542 0.704227C88.1973 -0.00298524 86.5167 1.78035 87.7447 2.96849C89.6454 4.85233 91.589 6.57586 93.736 8.18203C62.0147 0.885074 27.5412 6.42436 0.461105 24.7693C-0.191641 25.2816 0.352177 26.4583 1.16523 25.9888C30.5756 7.92469 65.4441 2.83489 98.4562 12.3677C95.7939 12.6853 93.2489 13.2061 90.5865 13.5236C88.6083 13.8527 89.5671 16.6868 91.385 16.3148C96.2288 15.5509 101.073 14.787 106.077 14.066C107.081 14.1634 107.554 12.4 106.678 11.8217Z" fill="#FCD53E"/>
</svg>
